<mxfile host="app.diagrams.net" modified="2020-05-15T19:43:00.812Z" agent="5.0 (Macintosh; Intel Mac OS X 10_15_4) AppleWebKit/537.36 (KHTML, like Gecko) Chrome/81.0.4044.138 Safari/537.36" etag="0r69dVB2ltr4XEj-_mvK" version="13.1.1" type="github">
  <diagram id="YSs7CyanzxN5SQnRR7FM" name="Page-1">
    <mxGraphModel dx="946" dy="573" grid="1" gridSize="10" guides="1" tooltips="1" connect="1" arrows="1" fold="1" page="1" pageScale="1" pageWidth="827" pageHeight="1169" math="0" shadow="0" extFonts="Open Sans^https://fonts.googleapis.com/css?family=Open+Sans">
      <root>
        <mxCell id="0" />
        <mxCell id="1" parent="0" />
        <mxCell id="dQM44K3Sv0IMisSPBop2-42" style="edgeStyle=orthogonalEdgeStyle;rounded=0;orthogonalLoop=1;jettySize=auto;html=1;fontFamily=Open Sans;" edge="1" parent="1" source="dQM44K3Sv0IMisSPBop2-1" target="dQM44K3Sv0IMisSPBop2-39">
          <mxGeometry relative="1" as="geometry" />
        </mxCell>
        <mxCell id="dQM44K3Sv0IMisSPBop2-44" value="Red prioridad baja" style="edgeLabel;html=1;align=left;verticalAlign=middle;resizable=0;points=[];fontFamily=Open Sans;labelPosition=right;verticalLabelPosition=middle;" vertex="1" connectable="0" parent="dQM44K3Sv0IMisSPBop2-42">
          <mxGeometry x="0.3814" y="2" relative="1" as="geometry">
            <mxPoint y="-13" as="offset" />
          </mxGeometry>
        </mxCell>
        <mxCell id="dQM44K3Sv0IMisSPBop2-43" style="edgeStyle=orthogonalEdgeStyle;rounded=0;orthogonalLoop=1;jettySize=auto;html=1;fontFamily=Open Sans;" edge="1" parent="1" source="dQM44K3Sv0IMisSPBop2-1" target="dQM44K3Sv0IMisSPBop2-40">
          <mxGeometry relative="1" as="geometry" />
        </mxCell>
        <mxCell id="dQM44K3Sv0IMisSPBop2-45" value="Red prioridad alta" style="edgeLabel;html=1;align=right;verticalAlign=middle;resizable=0;points=[];fontFamily=Open Sans;labelPosition=left;verticalLabelPosition=middle;" vertex="1" connectable="0" parent="dQM44K3Sv0IMisSPBop2-43">
          <mxGeometry x="0.3471" y="4" relative="1" as="geometry">
            <mxPoint y="-19" as="offset" />
          </mxGeometry>
        </mxCell>
        <mxCell id="dQM44K3Sv0IMisSPBop2-1" value="API" style="rounded=1;whiteSpace=wrap;html=1;fillColor=#dae8fc;strokeColor=#6c8ebf;fontFamily=Open Sans;FType=g;" vertex="1" parent="1">
          <mxGeometry x="150" y="30" width="96.58" height="50" as="geometry" />
        </mxCell>
        <mxCell id="dQM44K3Sv0IMisSPBop2-39" value="API Reporte" style="rounded=1;whiteSpace=wrap;html=1;fillColor=#ffe6cc;strokeColor=#d79b00;fontFamily=Open Sans;FType=g;" vertex="1" parent="1">
          <mxGeometry x="220" y="150" width="96.58" height="50" as="geometry" />
        </mxCell>
        <mxCell id="dQM44K3Sv0IMisSPBop2-40" value="API Fraude" style="rounded=1;whiteSpace=wrap;html=1;fillColor=#d5e8d4;strokeColor=#82b366;fontFamily=Open Sans;FType=g;" vertex="1" parent="1">
          <mxGeometry x="80" y="150" width="96.58" height="50" as="geometry" />
        </mxCell>
      </root>
    </mxGraphModel>
  </diagram>
</mxfile>
